<?xml version="1.0" encoding="UTF-8" standalone="no"?>
<!-- Created with Inkscape (http://www.inkscape.org/) -->

<svg
   xmlns:dc="http://purl.org/dc/elements/1.1/"
   xmlns:cc="http://creativecommons.org/ns#"
   xmlns:rdf="http://www.w3.org/1999/02/22-rdf-syntax-ns#"
   xmlns:svg="http://www.w3.org/2000/svg"
   xmlns="http://www.w3.org/2000/svg"
   xmlns:sodipodi="http://sodipodi.sourceforge.net/DTD/sodipodi-0.dtd"
   xmlns:inkscape="http://www.inkscape.org/namespaces/inkscape"
   width="185.82016mm"
   height="55mm"
   viewBox="0 0 185.82016 55"
   version="1.1"
   id="svg8"
   inkscape:version="0.92.3 (2405546, 2018-03-11)"
   sodipodi:docname="ilantropo.svg">
  <defs
     id="defs2" />
  <sodipodi:namedview
     id="base"
     pagecolor="#ffffff"
     bordercolor="#666666"
     borderopacity="1.0"
     inkscape:pageopacity="0.0"
     inkscape:pageshadow="2"
     inkscape:zoom="0.98994949"
     inkscape:cx="407.4445"
     inkscape:cy="221.1272"
     inkscape:document-units="mm"
     inkscape:current-layer="layer1-6"
     showgrid="false"
     inkscape:window-width="1366"
     inkscape:window-height="740"
     inkscape:window-x="1366"
     inkscape:window-y="0"
     inkscape:window-maximized="1" />
  <metadata
     id="metadata5">
    <rdf:RDF>
      <cc:Work
         rdf:about="">
        <dc:format>image/svg+xml</dc:format>
        <dc:type
           rdf:resource="http://purl.org/dc/dcmitype/StillImage" />
        <dc:title></dc:title>
        <dc:title></dc:title>
      </cc:Work>
    </rdf:RDF>
  </metadata>
  <g
     inkscape:label="Layer 1"
     inkscape:groupmode="layer"
     id="layer1"
     transform="translate(-60.863234,-105.49788)">
    <g
       transform="translate(-2.5854214,-18.163868)"
       id="layer1-6"
       inkscape:label="Layer 1">
      <path
         style="fill:#fe0067;stroke-width:0.08466666"
         d="m 193.78915,157.59736 v -15.40934 h 3.556 3.556 v 1.10067 c 0,1.02337 0.0113,1.10067 0.16023,1.10067 0.0933,0 0.2967,-0.17965 0.48683,-0.42992 0.87043,-1.14576 2.5062,-2.04294 4.30927,-2.36352 0.98329,-0.17483 3.19394,-0.0727 4.2051,0.19419 2.13098,0.56255 3.9768,1.8466 5.42772,3.77579 1.02031,1.35663 1.63962,2.74377 2.01917,4.52251 0.24838,1.16406 0.26512,3.43628 0.0341,4.63028 -0.30874,1.59579 -0.86759,2.95412 -1.73136,4.20828 -1.54349,2.24108 -3.43363,3.57227 -5.93639,4.18092 -1.08077,0.26283 -3.45917,0.28885 -4.572,0.05 -1.42846,-0.30658 -2.54797,-0.87362 -3.56193,-1.80411 -0.32919,-0.30211 -0.6435,-0.53429 -0.69847,-0.51598 -0.0753,0.0251 -0.10529,1.52957 -0.12166,6.1011 l -0.0217,6.06778 h -3.55544 -3.55545 z m 13.16567,-0.56511 c 1.59836,-0.39848 2.86873,-1.69209 3.26973,-3.32956 0.16371,-0.66851 0.14135,-2.04538 -0.0433,-2.66257 -0.47423,-1.58562 -1.57594,-2.74085 -3.05363,-3.20199 -0.78821,-0.24598 -2.36962,-0.26145 -3.13618,-0.0307 -1.64447,0.49506 -2.86394,1.82184 -3.22037,3.50377 -0.5204,2.45573 0.71596,4.85814 2.88853,5.61282 0.90412,0.31405 2.28732,0.35948 3.29517,0.10821 z m -108.627322,6.26951 c -2.555968,-0.38524 -4.234053,-1.24041 -5.958247,-3.03637 -2.137613,-2.22658 -3.153274,-5.02069 -3.031879,-8.3407 0.110769,-3.0292 1.059298,-5.3546 3.018612,-7.40038 1.569449,-1.63872 3.327492,-2.58321 5.449307,-2.92758 0.685749,-0.1113 2.830239,-0.10863 3.527869,0.004 1.48227,0.24014 2.96471,0.95383 3.98969,1.92075 0.56796,0.53578 0.60612,0.55726 0.71808,0.40415 0.0812,-0.11099 0.11824,-0.40887 0.11824,-0.94985 v -0.78816 h 3.55633 3.55634 l -0.0215,10.2235 -0.0215,10.2235 -3.53484,0.0221 -3.53482,0.0221 -0.001,-0.91109 c -0.001,-0.94262 -0.0494,-1.2921 -0.17807,-1.2921 -0.0412,0 -0.44629,0.37479 -0.9003,0.83286 -0.70389,0.71019 -0.93512,0.88563 -1.56987,1.19112 -1.17724,0.56657 -2.14775,0.78245 -3.658272,0.81374 -0.6985,0.0145 -1.3843,0.009 -1.524,-0.012 z m 4.593172,-6.26127 c 1.57868,-0.35211 2.87117,-1.63364 3.29062,-3.26269 0.16793,-0.65221 0.18639,-1.89124 0.0377,-2.53044 -0.36757,-1.58014 -1.46948,-2.82653 -2.97326,-3.36311 -0.55142,-0.19676 -0.76258,-0.22528 -1.68856,-0.22805 -1.12841,-0.003 -1.686627,0.11044 -2.451718,0.49985 -1.174386,0.59775 -2.120197,1.88259 -2.366458,3.21474 -0.465752,2.51949 0.754168,4.83076 2.932328,5.55561 0.939798,0.31274 2.138278,0.35522 3.219348,0.11409 z m 74.99349,6.18132 c -4.04402,-0.55153 -7.53757,-2.79403 -9.09975,-5.84111 -1.21873,-2.37717 -1.43696,-5.53557 -0.58901,-8.52468 0.0773,-0.27255 0.0862,-0.42938 0.0278,-0.48787 -0.15337,-0.15337 -1.38046,-0.33813 -2.24567,-0.33813 -2.68795,0 -4.16061,1.03298 -4.84638,3.39943 -0.34175,1.17931 -0.39194,2.05019 -0.39194,6.8005 v 4.44926 l -3.53484,-0.0221 -3.53483,-0.0221 -0.0215,-10.2235 -0.0215,-10.2235 h 3.55451 3.55451 l 0.023,1.62285 c 0.0161,1.13832 0.0523,1.6326 0.12125,1.65553 0.11303,0.0376 0.11254,0.0382 0.78646,-0.8746 1.38644,-1.87779 3.63616,-2.82412 6.48128,-2.7263 l 0.762,0.0262 0.0225,2.29791 c 0.0177,1.80685 0.047,2.31824 0.13704,2.39298 0.0908,0.0754 0.24109,-0.0634 0.72507,-0.66952 1.63,-2.04125 4.14819,-3.51103 7.13763,-4.16597 0.77789,-0.17043 1.10009,-0.19011 3.11142,-0.19011 2.02179,0 2.33157,0.0191 3.13266,0.1936 2.60463,0.56722 4.66671,1.64146 6.35223,3.30917 2.00851,1.98729 2.87644,4.21197 2.87644,7.37294 0,1.97502 -0.30059,3.39994 -1.02504,4.85902 -1.30512,2.62861 -4.09845,4.73755 -7.41702,5.59979 -1.72976,0.44942 -4.21468,0.58447 -6.07827,0.33031 z m 3.57716,-6.18132 c 1.57564,-0.35144 2.87218,-1.63699 3.29056,-3.26269 0.16597,-0.64487 0.18316,-1.89564 0.0349,-2.53868 -0.36268,-1.57311 -1.47414,-2.82004 -2.99932,-3.36493 -0.51908,-0.18545 -0.74603,-0.21526 -1.65964,-0.21799 -0.78666,-0.002 -1.18873,0.0363 -1.56633,0.15051 -1.2947,0.39164 -2.28223,1.22076 -2.83588,2.38098 -0.38995,0.81717 -0.50886,1.34941 -0.5072,2.27033 0.004,2.11919 1.17779,3.85414 3.02356,4.46838 0.9398,0.31274 2.13829,0.35522 3.21935,0.11409 z m 47.06832,6.23036 c -2.76778,-0.34833 -5.10816,-1.34428 -7.08449,-3.01483 -1.32836,-1.12283 -2.30283,-2.54302 -2.83721,-4.13494 -0.62543,-1.8631 -0.74469,-4.11429 -0.32774,-6.18606 0.81559,-4.05251 4.2123,-7.14929 8.96462,-8.17308 1.07991,-0.23265 4.00867,-0.3266 5.27102,-0.16909 3.56427,0.44473 6.81285,2.29145 8.56833,4.87084 0.742,1.09025 1.19733,2.18212 1.50055,3.59833 0.11915,0.55643 0.1541,1.09418 0.1541,2.37067 0,1.2765 -0.035,1.81425 -0.1541,2.37067 -0.4374,2.04289 -1.29066,3.63011 -2.6854,4.99533 -1.77168,1.73418 -4.00528,2.8399 -6.77017,3.35151 -0.83838,0.15514 -3.724,0.23082 -4.59951,0.12065 z m 3.10968,-6.19171 c 1.49194,-0.26292 2.77931,-1.36509 3.33599,-2.85605 0.28488,-0.76303 0.35541,-2.25082 0.14507,-3.0604 -0.66801,-2.57109 -3.10459,-3.99167 -5.8683,-3.42132 -1.21288,0.2503 -2.085,0.80699 -2.77161,1.76919 -0.6355,0.89058 -0.89574,1.72826 -0.89923,2.89457 -0.004,1.35239 0.40351,2.47889 1.21217,3.35038 1.14079,1.22943 2.80342,1.68357 4.84591,1.32363 z M 70.429833,152.43362 v -10.2456 h 3.556339 3.556338 l -0.02151,10.2235 -0.02151,10.2235 -3.534833,0.0221 -3.534833,0.0221 z m 10.199124,10.1379 c -0.02212,-0.0582 -0.03046,-7.55438 -0.01851,-16.65816 l 0.02172,-16.55234 3.534833,-0.0221 3.534833,-0.0221 v 16.68025 16.68027 h -3.516325 c -2.735157,0 -3.525257,-0.0235 -3.55655,-0.10584 z m 35.774873,-10.1379 v -10.2456 h 3.556 3.556 v 1.27 c 0,1.18267 0.0109,1.27 0.15782,1.27 0.0879,0 0.25923,-0.14633 0.3867,-0.33028 0.34139,-0.49262 1.29307,-1.38048 1.90062,-1.77317 0.67039,-0.43328 1.62146,-0.80379 2.54224,-0.99036 1.00953,-0.20455 3.47865,-0.13384 4.45295,0.12753 1.16192,0.31171 2.02134,0.79224 2.80206,1.56671 1.18111,1.17164 1.82166,2.5727 2.14956,4.70157 0.0514,0.33403 0.085,3.32107 0.0854,7.59977 l 8.5e-4,7.04942 -3.53483,-0.0221 -3.53484,-0.0221 -0.0437,-6.39233 c -0.042,-6.13847 -0.0506,-6.41441 -0.21717,-6.94831 -0.44036,-1.41187 -1.60464,-2.19815 -3.24938,-2.19444 -1.90682,0.004 -3.12916,0.94367 -3.69606,2.84042 -0.13573,0.45411 -0.15479,1.09155 -0.19727,6.59866 l -0.047,6.096 -3.53484,0.0221 -3.53483,0.0221 v -10.24559 z m 25.45737,10.18822 c -0.0316,-0.0316 -0.0574,-3.30952 -0.0574,-7.28435 v -7.22699 l -0.21718,-0.0826 c -0.11945,-0.0454 -0.65285,-0.0826 -1.18534,-0.0826 h -0.96815 v -2.87867 -2.87867 h 0.96815 c 0.53249,0 1.06541,-0.037 1.18426,-0.0822 l 0.21611,-0.0822 0.0222,-3.02934 0.0222,-3.02934 h 3.51367 3.51366 l 0.0222,3.02934 0.0222,3.02934 0.21611,0.0822 c 0.11885,0.0452 1.05182,0.0822 2.07326,0.0822 h 1.85715 v 2.87867 2.87867 h -1.85715 c -1.02144,0 -1.95468,0.0371 -2.07386,0.0824 l -0.21671,0.0824 -0.0216,7.26244 -0.0216,7.26244 -3.47746,0.0221 c -1.9126,0.0122 -3.50328,-0.004 -3.53483,-0.0353 z M 72.949013,137.94758 c -0.997694,-0.2352 -2.134234,-1.16791 -2.592061,-2.12719 -1.284774,-2.692 0.614206,-5.7397 3.576337,-5.7397 1.903459,0 3.425122,1.17743 3.90558,3.02203 0.514765,1.9763 -0.699288,4.16624 -2.642371,4.7664 -0.587705,0.18152 -1.652608,0.2187 -2.247485,0.0785 z"
         id="path3826"
         inkscape:connector-curvature="0"
         sodipodi:nodetypes="ccccsscccccccccccccccccccccccccccccccccsccccccccscccccccscccscccsccsssccccccccccccccccscsscccccccccccccccccccsccscsccsccccccsccccccccccscccccsccccccsscccccccccccccccccccccsccscccscccccccccscccscccccccccscccc" />
    </g>
  </g>
</svg>
