<svg xmlns="http://www.w3.org/2000/svg" width="55mm" height="55mm" viewBox="0 0 55 55"><path d="M18.023 50.538a24.148 24.148 0 0 1-2.775-1.347l-.701-.39.027-11.73.026-11.731.188-.818c.82-3.58 2.744-6.391 5.707-8.343 1.397-.92 2.858-1.518 4.64-1.9.74-.158 1.159-.19 2.498-.193 1.771-.004 2.474.094 3.97.553 5.805 1.78 9.655 7.44 9.193 13.518-.418 5.51-4.16 10.133-9.438 11.659-1.343.388-2.174.5-3.683.498-1.47-.003-2.356-.12-3.607-.476l-.669-.19-.022-2.476c-.012-1.362-.008-2.477.009-2.477s.351.15.742.333c1.263.592 1.935.726 3.589.72 1.193-.005 1.55-.037 2.089-.186 3.081-.851 5.387-3.126 6.212-6.126.296-1.075.367-2.596.174-3.702-.37-2.124-1.599-4.121-3.353-5.453-.68-.516-2.037-1.185-2.864-1.411-4.958-1.355-10.038 1.944-10.813 7.02-.103.674-.123 2.762-.123 12.89 0 9.613-.022 12.086-.106 12.085-.059 0-.468-.148-.91-.327z" fill="#fe0067"/></svg>