<svg xmlns="http://www.w3.org/2000/svg" width="55mm" height="55mm" viewBox="0 0 55 55"><path d="M24.712 52.256a20.125 20.125 0 0 1-1.165-.161l-.19-.046v-3.987c0-3.614.012-3.982.135-3.935.542.208 2.182.411 3.643.451 2.34.064 3.991-.164 6-.831a17.444 17.444 0 0 0 10.203-8.925c2.386-4.877 2.388-10.4.005-15.253-.968-1.972-1.945-3.318-3.53-4.861-3.002-2.922-6.69-4.578-10.939-4.91-2.653-.208-5.516.281-8.065 1.376a17.508 17.508 0 0 0-10.03 11.77c-.504 1.99-.485 1.529-.52 12.407-.019 5.638-.066 10.012-.107 10.012-.101 0-1.404-1.424-2.141-2.341-1.886-2.345-3.472-5.401-4.409-8.496-1.115-3.683-1.304-8.044-.517-11.933C4.63 14.96 9.52 8.595 16.457 5.188a25.01 25.01 0 0 1 8.8-2.504c1.256-.124 4.41-.054 5.598.125 4.407.662 8.259 2.252 11.637 4.802 8.305 6.272 11.82 16.968 8.874 27-2.803 9.547-11.137 16.5-21.151 17.648-1.4.16-4.143.16-5.503-.003z" fill="#fe0067"/></svg>